<?xml version="1.0" standalone="no"?>
<!DOCTYPE svg PUBLIC "-//W3C//DTD SVG 20010904//EN"
 "http://www.w3.org/TR/2001/REC-SVG-20010904/DTD/svg10.dtd">
<svg version="1.0" xmlns="http://www.w3.org/2000/svg"
 width="800.000000pt" height="170.000000pt" viewBox="0 0 800.000000 170.000000"
 preserveAspectRatio="xMidYMid meet">

<g transform="translate(0.000000,170.000000) scale(0.100000,-0.100000)"
fill="#000000" stroke="none">
<path d="M711 1651 c-6 -10 -13 -47 -17 -83 l-6 -65 -74 -30 -74 -31 -57 44
c-31 24 -66 44 -77 44 -32 0 -216 -188 -216 -220 0 -14 19 -48 43 -79 l43 -54
-30 -73 -31 -73 -69 -7 c-103 -10 -106 -15 -106 -179 0 -164 3 -169 106 -179
l69 -7 17 -42 c8 -23 22 -56 29 -74 12 -30 11 -34 -29 -87 -23 -30 -42 -66
-42 -78 0 -31 186 -218 216 -218 12 0 47 20 79 45 l57 44 37 -18 c20 -10 52
-24 72 -30 36 -11 36 -13 43 -78 11 -104 9 -103 132 -103 80 0 105 3 102 13
-3 8 -34 13 -95 15 l-91 3 -6 37 c-3 20 -8 58 -12 85 -5 40 -10 48 -33 53 -14
4 -55 20 -90 36 l-64 28 -66 -50 -65 -50 -95 94 -94 94 52 66 52 65 -24 48
c-14 26 -30 67 -37 90 -14 45 -6 42 -132 59 l-48 6 0 133 0 134 58 6 c107 12
108 12 122 58 7 23 23 64 37 90 l24 48 -52 65 -52 66 89 89 c49 49 95 89 103
89 8 0 35 -17 60 -38 67 -56 66 -56 134 -24 34 16 74 32 88 35 23 6 28 14 33
54 4 27 9 65 12 86 l6 37 94 0 c77 0 94 3 94 15 0 12 -18 15 -105 15 -91 0
-106 -2 -114 -19z"/>
<path d="M700 1380 c-48 -25 -150 -145 -150 -176 0 -17 -7 -25 -25 -30 -14 -3
-38 -22 -55 -40 -34 -39 -39 -87 -15 -134 10 -18 11 -31 5 -35 -36 -22 -61
-129 -41 -179 4 -11 2 -36 -5 -57 -14 -41 -4 -98 20 -118 11 -9 13 -27 9 -66
-5 -44 -2 -58 16 -83 25 -35 80 -57 122 -48 26 5 31 2 40 -22 30 -80 139 -124
226 -91 15 5 40 22 56 37 27 26 27 26 27 169 l0 143 63 0 62 0 22 -62 c21 -61
21 -62 2 -86 -66 -84 58 -189 127 -108 43 49 23 118 -39 134 -28 7 -35 17 -58
78 l-26 69 -74 5 -74 5 0 70 0 70 117 3 c107 2 118 1 127 -17 20 -36 42 -51
77 -51 77 0 113 92 57 145 -43 39 -99 32 -127 -16 l-17 -29 -120 0 -120 0 3
73 3 72 73 5 74 5 26 69 c24 61 31 71 59 78 89 23 78 146 -14 164 -27 5 -37 1
-63 -24 -36 -36 -39 -77 -10 -114 19 -25 19 -25 -3 -84 l-23 -59 -62 -3 -62
-3 0 144 0 143 -27 26 c-53 51 -139 63 -203 28z m158 -40 l32 -20 0 -475 0
-475 -32 -20 c-40 -24 -107 -26 -148 -5 -29 15 -60 60 -60 87 -1 33 -15 39
-62 27 -40 -11 -49 -10 -72 5 -50 32 -58 114 -11 102 14 -4 28 0 35 9 10 12 5
18 -32 34 -31 13 -49 28 -57 50 -18 42 -8 66 20 51 33 -18 48 4 22 32 -59 66
-58 147 4 204 l26 24 -21 30 c-30 40 -28 85 4 117 22 22 32 25 70 20 55 -6 81
16 40 34 -28 13 -32 29 -16 60 19 34 68 52 122 45 44 -6 49 -5 46 11 -2 11
-17 21 -41 27 -43 11 -46 19 -14 34 37 18 109 14 145 -8z m313 -60 c26 -14 24
-55 -3 -74 -19 -13 -25 -14 -43 -2 -27 18 -31 43 -9 67 20 22 28 23 55 9z
m117 -402 c7 -7 12 -21 12 -33 0 -12 -5 -26 -12 -33 -7 -7 -21 -12 -33 -12
-40 0 -61 50 -33 78 7 7 21 12 33 12 12 0 26 -5 33 -12z m-110 -400 c36 -36
-11 -93 -57 -69 -39 21 -21 81 24 81 12 0 26 -5 33 -12z"/>
<path d="M714 1201 c-38 -23 -57 -71 -44 -106 15 -41 38 -31 42 17 2 34 8 45
30 57 23 13 32 13 63 2 45 -16 70 -1 43 25 -25 26 -97 29 -134 5z"/>
<path d="M622 967 c-7 -8 -10 -53 -9 -115 2 -91 5 -105 25 -125 19 -18 24 -20
32 -8 5 10 3 25 -6 42 -8 16 -14 37 -14 48 0 19 5 20 43 15 31 -5 53 -1 76 10
36 19 36 43 0 38 -91 -13 -119 1 -119 59 0 41 -12 56 -28 36z"/>
<path d="M674 666 c-17 -8 -39 -24 -48 -37 -27 -40 -17 -118 15 -107 9 3 13
18 11 46 -3 37 0 42 28 57 25 13 38 14 65 5 60 -20 78 12 20 36 -42 17 -51 17
-91 0z"/>
<path d="M691 534 c-33 -74 57 -153 144 -124 34 11 52 35 34 45 -5 4 -24 1
-43 -5 -36 -11 -78 -2 -92 22 -5 7 -8 28 -9 47 0 43 -18 50 -34 15z"/>
<path d="M1503 1182 c-42 -37 -42 -38 -38 -92 3 -30 9 -130 15 -222 10 -163
16 -197 42 -229 30 -37 50 -39 397 -39 l340 0 34 30 c33 29 35 29 51 11 36
-40 60 -42 408 -39 l337 3 30 29 c27 26 33 28 44 14 38 -47 43 -48 378 -48
l318 0 20 26 20 26 31 -31 c57 -57 151 -47 185 20 35 67 -5 213 -67 245 -81
42 -178 -26 -178 -125 0 -17 -3 -31 -7 -31 -5 -1 -151 -1 -326 -2 -355 -1
-347 -2 -364 70 -13 53 -39 54 -54 2 -22 -73 -18 -73 -390 -72 -369 0 -355 -3
-378 72 -16 52 -34 51 -56 -5 -9 -25 -26 -50 -38 -57 -16 -8 -115 -11 -341
-10 -276 1 -322 3 -335 17 -13 13 -16 53 -19 245 -2 127 -6 230 -10 230 -4 -1
-26 -18 -49 -38z m2517 -352 c25 -13 54 -92 46 -125 -5 -18 -13 -25 -31 -25
-33 0 -65 51 -65 106 0 55 11 65 50 44z"/>
<path d="M5610 1182 l-43 -38 11 -155 c7 -85 12 -176 12 -204 0 -70 17 -124
50 -157 l28 -28 324 0 325 0 23 25 24 25 25 -24 c58 -55 131 -57 175 -5 63 74
10 258 -79 275 -82 15 -137 -31 -153 -128 l-7 -41 -305 1 c-168 1 -308 2 -312
2 -4 0 -14 7 -22 16 -14 13 -16 50 -16 245 0 126 -4 229 -9 229 -5 0 -28 -17
-51 -38z m893 -374 c14 -19 21 -44 21 -75 1 -45 -1 -48 -26 -51 -33 -4 -57 29
-65 88 -10 70 30 91 70 38z"/>
<path d="M6720 1182 l-43 -38 12 -204 c14 -239 23 -281 63 -315 l30 -25 339 0
339 0 32 29 32 29 27 -29 c22 -24 35 -29 74 -29 39 0 52 5 74 28 l26 29 28
-29 c22 -22 37 -28 70 -28 24 0 53 7 66 16 35 25 61 91 61 156 0 61 -24 138
-44 138 -6 0 -21 -16 -34 -36 l-23 -35 21 -33 c25 -42 25 -62 1 -76 -53 -28
-101 -1 -120 68 -17 60 -37 54 -60 -21 -13 -40 -35 -57 -73 -57 -35 0 -47 12
-66 66 -10 27 -24 49 -31 49 -8 0 -20 -18 -28 -40 -25 -72 -7 -69 -365 -67
-294 1 -324 3 -335 18 -10 13 -13 77 -14 238 -1 122 -1 224 0 229 2 16 -18 5
-59 -31z"/>
<path d="M5380 1115 l-34 -35 32 -32 32 -33 35 36 35 35 -33 32 -33 32 -34
-35z"/>
<path d="M2245 1070 l-29 -30 32 -33 32 -32 32 32 32 33 -29 30 c-16 16 -32
30 -35 30 -3 0 -19 -14 -35 -30z"/>
<path d="M4636 1003 c-22 -26 -27 -40 -23 -62 5 -25 2 -31 -23 -41 -64 -26
-121 -71 -135 -104 -23 -56 -27 -93 -10 -110 21 -20 79 -36 137 -36 41 0 48 3
66 32 l20 32 15 -36 c8 -19 25 -45 38 -57 22 -21 30 -21 342 -21 361 0 361 0
397 77 26 57 27 152 0 211 -10 23 -25 42 -32 42 -12 0 -68 -70 -68 -85 0 -3
11 -23 25 -43 27 -40 32 -72 13 -73 -12 -1 -624 0 -640 1 -15 0 -29 43 -54
167 -14 70 -29 131 -32 134 -4 3 -20 -9 -36 -28z m19 -252 c-3 -2 -33 0 -67 5
-80 11 -82 29 -8 67 l55 28 12 -48 c7 -26 10 -49 8 -52z"/>
<path d="M3072 467 l-32 -33 34 -33 35 -34 30 33 30 33 -27 33 c-15 18 -29 33
-33 33 -3 1 -19 -14 -37 -32z"/>
</g>
</svg>
